{
  "accessors": [
    {
      "bufferView": 2,
      "componentType": 5126,
      "count": 6810,
      "max": [
        0.42832905054092407,
        0.25811415910720825,
        0.46205568313598633
      ],
      "min": [
        -0.42637139558792114,
        -0.32521894574165344,
        -0.59722739458084106
      ],
      "type": "VEC3"
    },
    {
      "bufferView": 2,
      "byteOffset": 81720,
      "componentType": 5126,
      "count": 6810,
      "max": [
        0.99999904632568359,
        0.99989092350006104,
        0.99999904632568359
      ],
      "min": [
        -0.99999904632568359,
        -0.99989092350006104,
        -0.99999904632568359
      ],
      "type": "VEC3"
    },
    {
      "bufferView": 1,
      "componentType": 5126,
      "count": 6810,
      "max": [
        0.99998104572296143,
        0.99912446737289429
      ],
      "min": [
        0.0012906305491924286,
        0.00025188803556375206
      ],
      "type": "VEC2"
    },
    {
      "bufferView": 0,
      "componentType": 5125,
      "count": 18336,
      "max": [
        6809
      ],
      "min": [
        0
      ],
      "type": "SCALAR"
    },
    {
      "bufferView": 2,
      "byteOffset": 163440,
      "componentType": 5126,
      "count": 519,
      "max": [
        0.19465352594852448,
        0.1547202467918396,
        0.26715880632400513
      ],
      "min": [
        -0.17830531299114227,
        -0.20997339487075806,
        -0.23562711477279663
      ],
      "type": "VEC3"
    },
    {
      "bufferView": 2,
      "byteOffset": 169668,
      "componentType": 5126,
      "count": 519,
      "max": [
        0.98983079195022583,
        0.95853245258331299,
        0.99329352378845215
      ],
      "min": [
        -0.98766994476318359,
        -0.9822314977645874,
        -0.95340973138809204
      ],
      "type": "VEC3"
    },
    {
      "bufferView": 1,
      "byteOffset": 54480,
      "componentType": 5126,
      "count": 519,
      "max": [
        0.9982566237449646,
        0.99650812149047852
      ],
      "min": [
        0.046480953693389893,
        0.13773690164089203
      ],
      "type": "VEC2"
    },
    {
      "bufferView": 0,
      "byteOffset": 73344,
      "componentType": 5125,
      "count": 1371,
      "max": [
        518
      ],
      "min": [
        0
      ],
      "type": "SCALAR"
    },
    {
      "bufferView": 2,
      "byteOffset": 175896,
      "componentType": 5126,
      "count": 664,
      "max": [
        0.10059043765068054,
        0.087079927325248718,
        0.16366308927536011
      ],
      "min": [
        -0.10098382830619812,
        -0.22494269907474518,
        -0.1419636607170105
      ],
      "type": "VEC3"
    },
    {
      "bufferView": 2,
      "byteOffset": 183864,
      "componentType": 5126,
      "count": 664,
      "max": [
        0.99999773502349854,
        1,
        0.99999773502349854
      ],
      "min": [
        -0.99999773502349854,
        -0.9842606782913208,
        -0.99999773502349854
      ],
      "type": "VEC3"
    },
    {
      "bufferView": 1,
      "byteOffset": 58632,
      "componentType": 5126,
      "count": 664,
      "max": [
        0.99320834875106812,
        0.99672245979309082
      ],
      "min": [
        5.0736995035549626e-05,
        0.001882371143437922
      ],
      "type": "VEC2"
    },
    {
      "bufferView": 0,
      "byteOffset": 78828,
      "componentType": 5125,
      "count": 1698,
      "max": [
        663
      ],
      "min": [
        0
      ],
      "type": "SCALAR"
    },
    {
      "bufferView": 2,
      "byteOffset": 191832,
      "componentType": 5126,
      "count": 248,
      "max": [
        0.15596655011177063,
        0.15604270994663239,
        9.8347663879394531e-06
      ],
      "min": [
        -0.15612475574016571,
        -0.15604393184185028,
        -0.038387119770050049
      ],
      "type": "VEC3"
    },
    {
      "bufferView": 2,
      "byteOffset": 194808,
      "componentType": 5126,
      "count": 248,
      "max": [
        0.81709134578704834,
        0.81583911180496216,
        0.99284374713897705
      ],
      "min": [
        -0.81460899114608765,
        -0.81583911180496216,
        -0.9988587498664856
      ],
      "type": "VEC3"
    },
    {
      "bufferView": 1,
      "byteOffset": 63944,
      "componentType": 5126,
      "count": 248,
      "max": [
        0.99835610389709473,
        0.97945457696914673
      ],
      "min": [
        0.55640596151351929,
        0.48117166757583618
      ],
      "type": "VEC2"
    },
    {
      "bufferView": 0,
      "byteOffset": 85620,
      "componentType": 5125,
      "count": 1068,
      "max": [
        247
      ],
      "min": [
        0
      ],
      "type": "SCALAR"
    },
    {
      "bufferView": 2,
      "byteOffset": 197784,
      "componentType": 5126,
      "count": 254,
      "max": [
        0.0071347896009683609,
        0.0071345781907439232,
        0.39785590767860413
      ],
      "min": [
        -0.0071343961171805859,
        -0.0071346079930663109,
        3.6805868148803711e-06
      ],
      "type": "VEC3"
    },
    {
      "bufferView": 2,
      "byteOffset": 200832,
      "componentType": 5126,
      "count": 254,
      "max": [
        1,
        1,
        0.82434743642807007
      ],
      "min": [
        -1,
        -1,
        -0.95350062847137451
      ],
      "type": "VEC3"
    },
    {
      "bufferView": 1,
      "byteOffset": 65928,
      "componentType": 5126,
      "count": 254,
      "max": [
        0.99705028533935547,
        0.98543685674667358
      ],
      "min": [
        0.0029095800127834082,
        0.00044331964454613626
      ],
      "type": "VEC2"
    },
    {
      "bufferView": 0,
      "byteOffset": 89892,
      "componentType": 5125,
      "count": 1044,
      "max": [
        253
      ],
      "min": [
        0
      ],
      "type": "SCALAR"
    },
    {
      "bufferView": 2,
      "byteOffset": 203880,
      "componentType": 5126,
      "count": 254,
      "max": [
        0.0071347896009683609,
        0.0071345781907439232,
        0.39785590767860413
      ],
      "min": [
        -0.0071343961171805859,
        -0.0071346079930663109,
        3.6805868148803711e-06
      ],
      "type": "VEC3"
    },
    {
      "bufferView": 2,
      "byteOffset": 206928,
      "componentType": 5126,
      "count": 254,
      "max": [
        1,
        1,
        0.82434743642807007
      ],
      "min": [
        -1,
        -1,
        -0.95350062847137451
      ],
      "type": "VEC3"
    },
    {
      "bufferView": 1,
      "byteOffset": 67960,
      "componentType": 5126,
      "count": 254,
      "max": [
        0.99705028533935547,
        0.98543685674667358
      ],
      "min": [
        0.0029095800127834082,
        0.00044331964454613626
      ],
      "type": "VEC2"
    },
    {
      "bufferView": 0,
      "byteOffset": 94068,
      "componentType": 5125,
      "count": 1044,
      "max": [
        253
      ],
      "min": [
        0
      ],
      "type": "SCALAR"
    },
    {
      "bufferView": 3,
      "componentType": 5126,
      "count": 9,
      "max": [
        0.1666666716337204
      ],
      "min": [
        0
      ],
      "type": "SCALAR"
    },
    {
      "bufferView": 4,
      "componentType": 5126,
      "count": 9,
      "max": [
        -0.69572383165359497,
        -0.00076012942008674145,
        0.0044789938256144524,
        0.71829360723495483
      ],
      "min": [
        -0.70710635185241699,
        -0.0015872911317273974,
        0.00076012936187908053,
        0.70710641145706177
      ],
      "type": "VEC4"
    },
    {
      "bufferView": 3,
      "byteOffset": 36,
      "componentType": 5126,
      "count": 9,
      "max": [
        0.1666666716337204
      ],
      "min": [
        0
      ],
      "type": "SCALAR"
    },
    {
      "bufferView": 4,
      "byteOffset": 144,
      "componentType": 5126,
      "count": 9,
      "max": [
        -0.69572383165359497,
        -0.00076012942008674145,
        0.0044789938256144524,
        0.71829360723495483
      ],
      "min": [
        -0.70710635185241699,
        -0.0015872911317273974,
        0.00076012936187908053,
        0.70710641145706177
      ],
      "type": "VEC4"
    },
    {
      "bufferView": 3,
      "byteOffset": 72,
      "componentType": 5126,
      "count": 9,
      "max": [
        0.1666666716337204
      ],
      "min": [
        0
      ],
      "type": "SCALAR"
    },
    {
      "bufferView": 4,
      "byteOffset": 288,
      "componentType": 5126,
      "count": 9,
      "max": [
        -0.69572383165359497,
        -0.00076012942008674145,
        0.0044789938256144524,
        0.71829360723495483
      ],
      "min": [
        -0.70710635185241699,
        -0.0015872911317273974,
        0.00076012936187908053,
        0.70710641145706177
      ],
      "type": "VEC4"
    },
    {
      "bufferView": 3,
      "byteOffset": 108,
      "componentType": 5126,
      "count": 10,
      "max": [
        0.2083333283662796
      ],
      "min": [
        0
      ],
      "type": "SCALAR"
    },
    {
      "bufferView": 4,
      "byteOffset": 432,
      "componentType": 5126,
      "count": 10,
      "max": [
        -0.68728303909301758,
        -1.0213029033590004e-10,
        -9.9267073727649091e-11,
        0.72638970613479614
      ],
      "min": [
        -0.7071068286895752,
        -1.0491540969326252e-10,
        -1.0213030421368785e-10,
        0.70710670948028564
      ],
      "type": "VEC4"
    }
  ],
  "animations": [
    {
      "channels": [
        {
          "sampler": 0,
          "target": {
            "node": 11,
            "path": "rotation"
          }
        }
      ],
      "name": "drum-hihat|drum-hihat.animatedAction",
      "samplers": [
        {
          "input": 24,
          "interpolation": "LINEAR",
          "output": 25
        }
      ]
    },
    {
      "channels": [
        {
          "sampler": 0,
          "target": {
            "node": 11,
            "path": "rotation"
          }
        }
      ],
      "name": "drum-hihat|drum-hihat.animatedAction.001",
      "samplers": [
        {
          "input": 26,
          "interpolation": "LINEAR",
          "output": 27
        }
      ]
    },
    {
      "channels": [
        {
          "sampler": 0,
          "target": {
            "node": 11,
            "path": "rotation"
          }
        }
      ],
      "name": "drum-hihat|drum-hihat.animatedAction.002",
      "samplers": [
        {
          "input": 28,
          "interpolation": "LINEAR",
          "output": 29
        }
      ]
    },
    {
      "channels": [
        {
          "sampler": 0,
          "target": {
            "node": 11,
            "path": "rotation"
          }
        }
      ],
      "name": "drum-hihat|drum-hihatAction",
      "samplers": [
        {
          "input": 30,
          "interpolation": "LINEAR",
          "output": 31
        }
      ]
    }
  ],
  "asset": {
    "extras": {
      "author": "mertbbicak (https://sketchfab.com/mertbbicak)",
      "license": "CC-BY-4.0 (http://creativecommons.org/licenses/by/4.0/)",
      "source": "https://sketchfab.com/3d-models/simple-3-piece-drumset-c15135d997d34bfdbc94b8240d5dbb6a",
      "title": "Simple 3-Piece Drumset"
    },
    "generator": "Sketchfab-9.2.0",
    "version": "2.0"
  },
  "bufferViews": [
    {
      "buffer": 0,
      "byteLength": 98244,
      "byteOffset": 0,
      "name": "floatBufferViews",
      "target": 34963
    },
    {
      "buffer": 0,
      "byteLength": 69992,
      "byteOffset": 98244,
      "byteStride": 8,
      "name": "floatBufferViews",
      "target": 34962
    },
    {
      "buffer": 0,
      "byteLength": 209976,
      "byteOffset": 168236,
      "byteStride": 12,
      "name": "floatBufferViews",
      "target": 34962
    },
    {
      "buffer": 0,
      "byteLength": 148,
      "byteOffset": 378212,
      "name": "floatBufferViews"
    },
    {
      "buffer": 0,
      "byteLength": 592,
      "byteOffset": 378360,
      "byteStride": 16,
      "name": "floatBufferViews"
    }
  ],
  "buffers": [
    {
      "byteLength": 378952,
      "uri": "scene.bin"
    }
  ],
  "images": [
    {
      "uri": "textures/drum.tex_baseColor.png"
    },
    {
      "uri": "textures/stick.tex_baseColor.png"
    }
  ],
  "materials": [
    {
      "doubleSided": true,
      "emissiveFactor": [
        0,
        0,
        0
      ],
      "name": "drum.tex",
      "pbrMetallicRoughness": {
        "baseColorFactor": [
          1,
          1,
          1,
          1
        ],
        "baseColorTexture": {
          "index": 0,
          "texCoord": 0
        },
        "metallicFactor": 0,
        "roughnessFactor": 0.82111456180001685
      }
    },
    {
      "doubleSided": true,
      "emissiveFactor": [
        0,
        0,
        0
      ],
      "name": "stick.tex",
      "pbrMetallicRoughness": {
        "baseColorFactor": [
          1,
          1,
          1,
          1
        ],
        "baseColorTexture": {
          "index": 1,
          "texCoord": 0
        },
        "metallicFactor": 0,
        "roughnessFactor": 0.82111456180001685
      }
    }
  ],
  "meshes": [
    {
      "name": "drum-set_drum.tex_0",
      "primitives": [
        {
          "attributes": {
            "NORMAL": 1,
            "POSITION": 0,
            "TEXCOORD_0": 2
          },
          "indices": 3,
          "material": 0,
          "mode": 4
        }
      ]
    },
    {
      "name": "drum-stool_drum.tex_0",
      "primitives": [
        {
          "attributes": {
            "NORMAL": 5,
            "POSITION": 4,
            "TEXCOORD_0": 6
          },
          "indices": 7,
          "material": 0,
          "mode": 4
        }
      ]
    },
    {
      "name": "drum-pedal_drum.tex_0",
      "primitives": [
        {
          "attributes": {
            "NORMAL": 9,
            "POSITION": 8,
            "TEXCOORD_0": 10
          },
          "indices": 11,
          "material": 0,
          "mode": 4
        }
      ]
    },
    {
      "name": "drum-hihat_drum.tex_0",
      "primitives": [
        {
          "attributes": {
            "NORMAL": 13,
            "POSITION": 12,
            "TEXCOORD_0": 14
          },
          "indices": 15,
          "material": 0,
          "mode": 4
        }
      ]
    },
    {
      "name": "drumstick-1_stick.tex_0",
      "primitives": [
        {
          "attributes": {
            "NORMAL": 17,
            "POSITION": 16,
            "TEXCOORD_0": 18
          },
          "indices": 19,
          "material": 1,
          "mode": 4
        }
      ]
    },
    {
      "name": "drumstick-2_stick.tex_0",
      "primitives": [
        {
          "attributes": {
            "NORMAL": 21,
            "POSITION": 20,
            "TEXCOORD_0": 22
          },
          "indices": 23,
          "material": 1,
          "mode": 4
        }
      ]
    }
  ],
  "nodes": [
    {
      "children": [
        1
      ],
      "name": "RootNode (gltf orientation matrix)",
      "rotation": [
        -0.70710678118654746,
        -0,
        -0,
        0.70710678118654757
      ]
    },
    {
      "children": [
        2
      ],
      "name": "RootNode (model correction matrix)"
    },
    {
      "children": [
        3
      ],
      "matrix": [
        1,
        0,
        0,
        0,
        0,
        0,
        1,
        0,
        0,
        -1,
        0,
        0,
        0,
        0,
        0,
        1
      ],
      "name": "drumset.fbx"
    },
    {
      "children": [
        4
      ],
      "name": ""
    },
    {
      "children": [
        5,
        7,
        9,
        11,
        13,
        15
      ],
      "name": "RootNode"
    },
    {
      "children": [
        6
      ],
      "name": "drum-set",
      "rotation": [
        -0.70710635185241699,
        -0.00076012942008674145,
        0.00076012930367141962,
        0.70710641145706177
      ],
      "scale": [
        100,
        100,
        100
      ],
      "translation": [
        1.6860989332199097,
        59.558559417724609,
        -129.89395141601562
      ]
    },
    {
      "mesh": 0,
      "name": "drum-set_drum.tex_0"
    },
    {
      "children": [
        8
      ],
      "name": "drum-stool",
      "rotation": [
        -0.70710635185241699,
        -0.00076012942008674145,
        0.00076012930367141962,
        0.70710641145706177
      ],
      "scale": [
        100,
        100,
        100
      ],
      "translation": [
        5.9826469421386719,
        22.975040435791016,
        -61.551475524902344
      ]
    },
    {
      "mesh": 1,
      "name": "drum-stool_drum.tex_0"
    },
    {
      "children": [
        10
      ],
      "name": "drum-pedal",
      "rotation": [
        -0.70710635185241699,
        -0.00076012942008674145,
        0.00076012930367141962,
        0.70710641145706177
      ],
      "scale": [
        100,
        100,
        100
      ],
      "translation": [
        0.00088587403297424316,
        13.991689682006836,
        -113.60115814208984
      ]
    },
    {
      "mesh": 2,
      "name": "drum-pedal_drum.tex_0"
    },
    {
      "children": [
        12
      ],
      "name": "drum-hihat",
      "rotation": [
        -0.7071068286895752,
        -1.0213028339700614e-10,
        -1.0213030421368785e-10,
        0.70710670948028564
      ],
      "scale": [
        100,
        100,
        100
      ],
      "translation": [
        4.1426301002502441,
        102.45164489746094,
        -127.6439208984375
      ]
    },
    {
      "mesh": 3,
      "name": "drum-hihat_drum.tex_0"
    },
    {
      "children": [
        14
      ],
      "name": "drumstick-1",
      "rotation": [
        -0.7071068286895752,
        0,
        0,
        0.70710670948028564
      ],
      "scale": [
        100,
        100,
        100
      ],
      "translation": [
        -3.7320225069212374e-15,
        76.057029724121094,
        -86.015029907226562
      ]
    },
    {
      "mesh": 4,
      "name": "drumstick-1_stick.tex_0"
    },
    {
      "children": [
        16
      ],
      "name": "drumstick-2",
      "rotation": [
        -0.7071068286895752,
        0,
        0,
        0.70710670948028564
      ],
      "scale": [
        100,
        100,
        100
      ],
      "translation": [
        -4.4820365905761719,
        76.057029724121094,
        -86.015029907226562
      ]
    },
    {
      "mesh": 5,
      "name": "drumstick-2_stick.tex_0"
    }
  ],
  "samplers": [
    {
      "magFilter": 9729,
      "minFilter": 9987,
      "wrapS": 10497,
      "wrapT": 10497
    }
  ],
  "scene": 0,
  "scenes": [
    {
      "name": "OSG_Scene",
      "nodes": [
        0
      ]
    }
  ],
  "textures": [
    {
      "sampler": 0,
      "source": 0
    },
    {
      "sampler": 0,
      "source": 1
    }
  ]
}

